<svg id="Icon_Name" data-name="Icon Name" xmlns="http://www.w3.org/2000/svg" viewBox="0 0 24 24"><defs><style>.cls-1{fill:#003;}.cls-2{fill:#fff;}</style></defs><rect class="cls-1" x="0.5" y="0.5" width="23" height="23" rx="1"/><path class="cls-2" d="M21.92,14a3.76,3.76,0,0,1-1.51,2.64,5.64,5.64,0,0,1-3.38.92,5,5,0,0,1-3.66-1.36A4.91,4.91,0,0,1,12,12.5v-1a5.27,5.27,0,0,1,.64-2.64,4.25,4.25,0,0,1,1.82-1.74,5.78,5.78,0,0,1,2.73-.61,5.29,5.29,0,0,1,3.29.95,3.73,3.73,0,0,1,1.44,2.65H20.21a2.83,2.83,0,0,0-1-1.87,3.3,3.3,0,0,0-2.06-.57,3.31,3.31,0,0,0-2.56,1,4.05,4.05,0,0,0-.93,2.86v1a4.2,4.2,0,0,0,.88,2.79,3,3,0,0,0,2.45,1,3.74,3.74,0,0,0,2.18-.53,2.8,2.8,0,0,0,1-1.87Z"/><path class="cls-2" d="M2.08,14A3.76,3.76,0,0,0,3.59,16.6,5.64,5.64,0,0,0,7,17.52a5,5,0,0,0,3.66-1.36A4.91,4.91,0,0,0,12,12.5v-1a5.27,5.27,0,0,0-.64-2.64A4.25,4.25,0,0,0,9.54,7.09a5.78,5.78,0,0,0-2.73-.61,5.29,5.29,0,0,0-3.29.95,3.73,3.73,0,0,0-1.44,2.65H3.79a2.83,2.83,0,0,1,1-1.87,3.3,3.3,0,0,1,2.06-.57,3.31,3.31,0,0,1,2.56,1,4.05,4.05,0,0,1,.93,2.86v1a4.2,4.2,0,0,1-.88,2.79,3,3,0,0,1-2.45,1,3.74,3.74,0,0,1-2.18-.53,2.8,2.8,0,0,1-1-1.87Z"/></svg>